<svg xmlns="http://www.w3.org/2000/svg" width="200" height="40" viewBox="0 0 200 40"><path d="M44.788 16.111h-6.284v-9.853h-27.22v27.246h27.195v-9.853h6.283v9.124a6.988 6.988 0 0 1-6.987 6.987h-25.788a6.988 6.988 0 0 1-6.987-6.987v-25.788a6.988 6.988 0 0 1 6.987-6.987h25.813a6.988 6.988 0 0 1 6.988 6.987v9.124zm-21.29 13.649l-.678-.679-7.666-7.615-.427-.428.402-.477 1.684-2.061.402-.503.528.377 4.172 2.991c3.042-4.097 7.767-8.118 11.01-10.405l.502-.352.402.452 1.659 1.885.528.603-.679.428c-1.986 1.256-8.169 8.42-11.36 14.93l-.478.854zm28.377-22.019h17.946c1.96 0 2.438-1.432 2.438-2.815v-1.659h-20.358v4.474h-.026zm48.032 0c1.96 0 2.438-1.432 2.438-2.815v-1.659h-13.774v4.474h4.349v2.74h-4.35v4.474h4.349v21.715h5.202v-21.74h1.81c1.96 0 2.438-1.433 2.438-2.815v-1.66h-4.248v-2.738c.78.025 1.433.025 1.785.025zm19.881 13.673c1.96 0 2.438-1.432 2.438-2.815v-1.659h-18.926v4.474h6.811v3.117h-6.81v4.474h6.81v3.016h-6.81v4.474h16.487c1.96 0 2.438-1.433 2.438-2.815v-1.66h-6.51v-3.016h4.072c1.96 0 2.438-1.433 2.438-2.815v-1.659h-6.51v-3.117h4.072zm67.863-8.068v-10.129h-3.52c-.904 0-2.06-.025-2.06 2.388v7.766h-8.621v4.45h8.62v18.85h5.58v-18.851h5.857c1.96 0 2.438-1.433 2.438-2.816v-1.659h-8.294zm-53.285-8.445v-1.659h-8.998v4.474h6.56c1.96 0 2.438-1.432 2.438-2.815zm-78.946 11.839h2.363c1.96 0 1.96-2.689 1.96-2.689l.704 2.614h7.264c1.483 0 2.01-.754 2.187-1.734.176-.98.93-5.73.93-5.73h-4.474l-1.257 6.61-1.76-6.711h-5.127s0 3.393-.176 4.046c-.176.654-.603.226-.603.226l-1.106-4.247h-4.55s.504 2.89 1.031 5.253c.478 2.413 1.458 2.362 2.614 2.362zm9.2.704h-3.57c-2.086 0-2.06.427-2.06 1.483v.025h-7.114v4.474h7.113v13.246h5.605v-13.247h5.203c1.96 0 2.438-1.433 2.438-2.815v-1.659h-7.616v-1.508zm69.345-3.92h-.05c-.076-1.283-.629-2.49-2.413-2.49h-6.183v4.475h3.443v18.775c0 2.388 1.156 2.388 2.061 2.388h.804v.025h3.042c1.96 0 2.438-1.433 2.438-2.815v-1.659h-3.142v-18.7zm37.751-8.624v-1.658h-8.998v4.474h6.56c1.96 0 2.438-1.432 2.438-2.815zm-.403 8.621h-.05c-.075-1.282-.628-2.488-2.413-2.488h-6.183v4.474h3.444v18.775c0 2.388 1.156 2.388 2.06 2.388h.805v.025h3.041c1.96 0 2.438-1.433 2.438-2.815v-1.659h-3.167v-18.7h.025zm-19.83 16.036c2.513-2.865 5.403-6.108 6.459-7.314l.15-.176c.227-.201.428-.553.478-1.08.201-1.057-.226-2.137-.754-2.49-.377-.351-.905-.552-1.659-.552h-17.82v4.474h13.673l-4.071 4.524-3.042-2.262h-5.303c-.729 0-.679.377.05 1.005 1.257 1.056 3.343 2.815 5.379 4.524-.628.704-1.332 1.483-2.086 2.338h-4.424v4.021h4.776c1.96 0 2.79-.779 4.247-2.413.453-.502.754-.854.956-1.105.527.427 1.005.804 1.407 1.105l.226.176.201.151c2.112 1.584 2.866 2.086 4.801 2.086h4.021v-4.019h-3.72l-3.946-2.991zm4.95-23.903h-.05c-.075-1.282-.628-2.488-2.412-2.488h-8.973v-.05h-3.519c-.905 0-2.061-.025-2.337 2.387-.277 2.388-1.207 10.255-1.207 10.255h5.58l.955-8.118h6.761v5.48c0 2.387 1.156 2.387 2.061 2.387h.804v.025h3.042c1.96 0 2.438-1.433 2.438-2.815v-1.659h-3.167v-5.403h.025zm-66.629 11.086h-1.03v19.932h1.18c.83 0 1.56-.729 1.56-1.885v-15.96c0-1.508-.177-2.087-1.71-2.087zm10.732 0h-1.03v19.932h1.181c.83 0 1.558-.729 1.558-1.885v-15.96c0-1.508-.175-2.087-1.709-2.087zm-48.032 11.234c-.226 3.293-.478 8.697-.478 8.697h5.128l.628-11.863h-2.865c-1.534 0-2.187-.101-2.413 3.166zm16.086-3.166h-2.866l.629 11.863h5.127s-.251-5.404-.477-8.697c-.201-3.267-.83-3.166-2.413-3.166zm4.675-16.138v5.38c6.861-.63 12.315-6.184 12.366-10.985h-5.907c-.377 4.173-6.46 5.605-6.46 5.605zm0 10.481v5.379c6.861-.628 12.315-6.183 12.366-10.984h-5.203c-2.162 4.349-7.163 5.605-7.163 5.605zm0 12.14v5.379c6.861-.628 12.315-6.183 12.366-10.984h-5.203c-2.162 4.348-7.163 5.605-7.163 5.605zm35.565-16.361h12.969v-9.15h-.025c-.076-1.734-.654-2.664-3.067-2.664h-12.567c-2.589 0-2.915 1.608-2.94 2.664v9.174h3.946c.025-.025.678-.025 1.684-.025zm0-6.36c.025-1.432.553-1.457 2.036-1.457h3.946c1.08 0 1.407.226 1.407 1.131v2.363h-7.39v-2.037z" fill="#FFF" fill-rule="evenodd"/></svg>